<svg xmlns="http://www.w3.org/2000/svg" xmlns:svg="http://www.w3.org/2000/svg" xmlns:xlink="http://www.w3.org/1999/xlink" id="svg3386" width="128" height="128" version="1.1"><defs id="defs3388"><pattern id="pattern5037" patternTransform="matrix(0,0.13876505,-0.13876573,0,57.140591,58.658166)" xlink:href="#pattern5132"/><pattern id="pattern5035" patternTransform="matrix(0.13876573,0,0,0.13876505,5.6316494,70.976536)" xlink:href="#pattern5135"/><linearGradient id="linearGradient5091" x1="39" x2="40" y1="2.5" y2="2.5" gradientTransform="matrix(2.6430471,0,0,6.9470587,2.7314872,6.0123085)" gradientUnits="userSpaceOnUse" xlink:href="#linearGradient6974"/><linearGradient id="linearGradient6974"><stop style="stop-color:#eeeeec;stop-opacity:1" id="stop6976" offset="0"/><stop style="stop-color:#eeeeec;stop-opacity:0" id="stop6978" offset="1"/></linearGradient><linearGradient id="linearGradient5094" x1="39" x2="40" y1="2.5" y2="2.5" gradientTransform="matrix(2.6430471,0,0,2.6430471,2.7314862,-2.389509)" gradientUnits="userSpaceOnUse" xlink:href="#linearGradient6974"/><linearGradient id="linearGradient4552"><stop style="stop-color:#eeeeec;stop-opacity:1" id="stop4554" offset="0"/><stop style="stop-color:#eeeeec;stop-opacity:0" id="stop4556" offset="1"/></linearGradient><linearGradient id="linearGradient5097" x1="13.101" x2="31.101" y1="11.5" y2="11.5" gradientTransform="matrix(2.6430471,0,0,2.6430471,0.08843881,-2.389509)" gradientUnits="userSpaceOnUse" xlink:href="#linearGradient4077"/><linearGradient id="linearGradient4077"><stop style="stop-color:#c8c8c8;stop-opacity:1" id="stop4079" offset="0"/><stop style="stop-color:#c8c8c8;stop-opacity:0" id="stop4081" offset="1"/></linearGradient><linearGradient id="linearGradient5100" x1="42.75" x2="42.75" y1="57.562" y2="60.002" gradientTransform="matrix(0.82595248,0,0,1.0572188,-17.008773,-33.313152)" gradientUnits="userSpaceOnUse" xlink:href="#linearGradient9193"/><linearGradient id="linearGradient9193"><stop style="stop-color:#888a85;stop-opacity:1" id="stop9195" offset="0"/><stop style="stop-color:#eeeeec;stop-opacity:1" id="stop9197" offset="1"/></linearGradient><linearGradient id="linearGradient5103" x1="44.732" x2="46.024" y1="14.25" y2="14.25" gradientTransform="matrix(2.9100718,0,0,2.8777809,-24.363167,-13.862859)" gradientUnits="userSpaceOnUse" xlink:href="#linearGradient6521"/><linearGradient id="linearGradient6521"><stop style="stop-color:#babdb6;stop-opacity:1" id="stop6523" offset="0"/><stop style="stop-color:#555753;stop-opacity:1" id="stop6525" offset="1"/></linearGradient><linearGradient id="linearGradient5106" x1="97.036" x2="97.036" y1="57.995" y2="59.963" gradientTransform="matrix(0.68038191,0,0,1.0572188,39.164976,-33.313152)" gradientUnits="userSpaceOnUse" xlink:href="#linearGradient9193"/><linearGradient id="linearGradient4571"><stop style="stop-color:#888a85;stop-opacity:1" id="stop4573" offset="0"/><stop style="stop-color:#eeeeec;stop-opacity:1" id="stop4575" offset="1"/></linearGradient><linearGradient id="linearGradient5109" x1="106.302" x2="108.069" y1="29.446" y2="36.183" gradientTransform="matrix(0.65165357,0,0,0.53832235,23.49331,67.134127)" gradientUnits="userSpaceOnUse" xlink:href="#linearGradient9428"/><linearGradient id="linearGradient9428"><stop style="stop-color:#434542;stop-opacity:1" id="stop9430" offset="0"/><stop id="stop9444" offset=".666" style="stop-color:#5f615d;stop-opacity:1"/><stop style="stop-color:#6a6c67;stop-opacity:1" id="stop9432" offset="1"/></linearGradient><linearGradient id="linearGradient5111" x1="106.347" x2="112.062" y1="23.515" y2="40.552" gradientTransform="matrix(0.65165357,0,0,0.53832235,23.49331,67.134127)" gradientUnits="userSpaceOnUse" xlink:href="#linearGradient9436"/><linearGradient id="linearGradient9436"><stop style="stop-color:#eeeeec;stop-opacity:.57522124" id="stop9438" offset="0"/><stop style="stop-color:#000;stop-opacity:0" id="stop9440" offset="1"/></linearGradient><linearGradient id="linearGradient5114" x1="39.336" x2="51.185" y1="-132.085" y2="41.899" gradientTransform="matrix(0.16943383,-0.06279737,0.06249984,0.1702407,83.734584,80.489277)" gradientUnits="userSpaceOnUse" xlink:href="#linearGradient9131"/><linearGradient id="linearGradient9131"><stop style="stop-color:#eeeeec;stop-opacity:1" id="stop9133" offset="0"/><stop style="stop-color:#eeeeec;stop-opacity:0" id="stop9135" offset="1"/></linearGradient><radialGradient id="radialGradient5117" cx="80.451" cy="161.302" r="44.981" fx="80.451" fy="161.302" gradientTransform="matrix(0.23503706,0,0,0.23503706,76.216587,48.848367)" gradientUnits="userSpaceOnUse" xlink:href="#linearGradient9241"/><linearGradient id="linearGradient9241"><stop id="stop9243" offset="0" style="stop-color:#eeeeec;stop-opacity:1"/><stop style="stop-color:#888a85;stop-opacity:1" id="stop9247" offset=".5"/><stop id="stop9245" offset="1" style="stop-color:#eeeeec;stop-opacity:1"/></linearGradient><radialGradient id="radialGradient5119" cx="80.451" cy="161.302" r="44.981" fx="80.451" fy="161.302" gradientTransform="matrix(0.23503706,0,0,0.23503706,76.216587,48.848367)" gradientUnits="userSpaceOnUse" xlink:href="#linearGradient7364"/><linearGradient id="linearGradient7364"><stop id="stop7366" offset="0" style="stop-color:#484a46;stop-opacity:1"/><stop id="stop7372" offset="1" style="stop-color:#000;stop-opacity:1"/></linearGradient><linearGradient id="linearGradient5122" x1="45.381" x2="115.323" y1="140.916" y2="140.916" gradientTransform="matrix(0.23503706,0,0,0.26354586,76.216587,42.845328)" gradientUnits="userSpaceOnUse" xlink:href="#linearGradient9207"/><linearGradient id="linearGradient9207"><stop id="stop9209" offset="0" style="stop-color:#444542;stop-opacity:1"/><stop style="stop-color:#898a87;stop-opacity:1" id="stop9227" offset=".293"/><stop style="stop-color:#cecfcc;stop-opacity:1" id="stop9211" offset=".402"/><stop id="stop9225" offset=".504" style="stop-color:#7b7c79;stop-opacity:1"/><stop id="stop9213" offset="1" style="stop-color:#282927;stop-opacity:1"/></linearGradient><linearGradient id="linearGradient5125" x1="39.336" x2="51.185" y1="-132.085" y2="41.899" gradientTransform="matrix(0.46847296,-0.17949483,0.17280765,0.48660162,6.7736696,70.272804)" gradientUnits="userSpaceOnUse" xlink:href="#linearGradient9131"/><linearGradient id="linearGradient4607"><stop style="stop-color:#eeeeec;stop-opacity:1" id="stop4609" offset="0"/><stop style="stop-color:#eeeeec;stop-opacity:0" id="stop4611" offset="1"/></linearGradient><radialGradient id="radialGradient5128" cx="24.5" cy="29.5" r="2.5" fx="24.5" fy="29.5" gradientTransform="matrix(0.92882067,0,0,0.92882067,12.594771,56.925416)" gradientUnits="userSpaceOnUse" xlink:href="#linearGradient10477"/><linearGradient id="linearGradient10477"><stop style="stop-color:#fff;stop-opacity:1" id="stop10479" offset="0"/><stop style="stop-color:#fff;stop-opacity:0" id="stop10481" offset="1"/></linearGradient><pattern id="pattern5132" patternTransform="matrix(0,0.13876505,-0.13876573,0,56.686261,52.91752)" xlink:href="#pattern5042"/><pattern id="pattern5042" patternTransform="matrix(0,0.05250192,-0.05250218,0,21.413853,20.92548)" xlink:href="#pattern10600"/><pattern id="pattern10600" patternTransform="matrix(0.2951997,0,0,0.2951997,12.560134,119.61716)" xlink:href="#pattern10595"/><pattern id="pattern10595" width="19.078" height="22.546" patternTransform="translate(1.4015248,-23.147395)" patternUnits="userSpaceOnUse"><path id="path10593" d="M 1,1 C 18.077509,21.546378 18.077509,21.546378 18.077509,21.546378" style="fill:none;fill-rule:evenodd;stroke:#000;stroke-width:2;stroke-linecap:butt;stroke-linejoin:miter;stroke-miterlimit:4;stroke-dasharray:none;stroke-opacity:1"/></pattern><pattern id="pattern5135" patternTransform="matrix(0.13876573,0,0,0.13876505,5.1773191,65.235891)" xlink:href="#pattern5039"/><pattern id="pattern5039" patternTransform="matrix(0.05250218,0,0,0.05250192,1.9253839,25.58615)" xlink:href="#pattern10600"/><pattern id="pattern4624" patternTransform="matrix(0.2951997,0,0,0.2951997,12.560134,119.61716)" xlink:href="#pattern10595"/><pattern id="pattern4626" width="19.078" height="22.546" patternTransform="translate(1.4015248,-23.147395)" patternUnits="userSpaceOnUse"><path id="path4628" d="M 1,1 C 18.077509,21.546378 18.077509,21.546378 18.077509,21.546378" style="fill:none;fill-rule:evenodd;stroke:#000;stroke-width:2;stroke-linecap:butt;stroke-linejoin:miter;stroke-miterlimit:4;stroke-dasharray:none;stroke-opacity:1"/></pattern><linearGradient id="linearGradient5138" x1="72.809" x2="85.31" y1="109.735" y2="191.977" gradientTransform="matrix(0.50365086,0,0,0.50365086,-3.4281586,3.5909459)" gradientUnits="userSpaceOnUse" xlink:href="#linearGradient9217"/><linearGradient id="linearGradient9217"><stop style="stop-color:#eeeeec;stop-opacity:1" id="stop9219" offset="0"/><stop style="stop-color:#191c1d;stop-opacity:1" id="stop9221" offset="1"/></linearGradient><radialGradient id="radialGradient5141" cx="24" cy="31" r="8" fx="24" fy="31" gradientTransform="matrix(2.4778567,0,0,2.4778564,-22.377457,8.0174963)" gradientUnits="userSpaceOnUse" xlink:href="#linearGradient2971"/><linearGradient id="linearGradient2971"><stop style="stop-color:#888a85;stop-opacity:1" id="stop2973" offset="0"/><stop style="stop-color:#000;stop-opacity:1" id="stop2975" offset="1"/></linearGradient><linearGradient id="linearGradient5146" x1="101.25" x2="101.25" y1="59.007" y2="54.194" gradientTransform="matrix(0.62189365,0,0,0.64037939,-2.7100821,-7.3627613)" gradientUnits="userSpaceOnUse" xlink:href="#linearGradient7452"/><linearGradient id="linearGradient7452"><stop id="stop7454" offset="0" style="stop-color:#babdb6;stop-opacity:1"/><stop id="stop7456" offset="1" style="stop-color:#888a85;stop-opacity:1"/></linearGradient><linearGradient id="linearGradient5151" x1="23.425" x2="23.425" y1="16.5" y2="12.854" gradientTransform="matrix(2.8988259,0,0,2.6430474,-6.0502556,5.5396331)" gradientUnits="userSpaceOnUse" xlink:href="#linearGradient6290"/><linearGradient id="linearGradient6290"><stop style="stop-color:#eeeeec;stop-opacity:1" id="stop6292" offset="0"/><stop style="stop-color:#eeeeec;stop-opacity:0" id="stop6294" offset="1"/></linearGradient><linearGradient id="linearGradient5154" x1="55.906" x2="55.906" y1="89.361" y2="94" gradientTransform="matrix(0.6343313,0,0,0.58734374,-4.0347149,-6.0604006)" gradientUnits="userSpaceOnUse" xlink:href="#linearGradient7512"/><linearGradient id="linearGradient7512"><stop style="stop-color:#538ac5;stop-opacity:1" id="stop7514" offset="0"/><stop style="stop-color:#729fcf;stop-opacity:1" id="stop7516" offset="1"/></linearGradient><linearGradient id="linearGradient5157" x1="35.639" x2="35.391" y1="13.85" y2="42.832" gradientTransform="matrix(2.6430471,0,0,2.6430471,0.08843881,-2.389509)" gradientUnits="userSpaceOnUse" xlink:href="#linearGradient4040"/><linearGradient id="linearGradient4040"><stop style="stop-color:#565656;stop-opacity:.78431374" id="stop4042" offset="0"/><stop style="stop-color:#0c0c0c;stop-opacity:.90980393" id="stop4044" offset="1"/></linearGradient><radialGradient id="radialGradient5162" cx="80.451" cy="161.302" r="39.358" fx="80.451" fy="161.302" gradientTransform="matrix(0.23308657,0,0,0.25622489,76.062725,47.984463)" gradientUnits="userSpaceOnUse" xlink:href="#linearGradient10672"/><linearGradient id="linearGradient10672"><stop style="stop-color:#2e3436;stop-opacity:1" id="stop10674" offset="0"/><stop style="stop-color:#2e3436;stop-opacity:0" id="stop10676" offset="1"/></linearGradient><linearGradient id="linearGradient5165" x1="42.994" x2="42.89" y1="13.222" y2="38.469" gradientTransform="matrix(2.9009054,0,0,2.8988259,-5.6458296,3.8200634)" gradientUnits="userSpaceOnUse" xlink:href="#linearGradient4050"/><linearGradient id="linearGradient4050"><stop style="stop-color:#525252;stop-opacity:1" id="stop4052" offset="0"/><stop style="stop-color:#181818;stop-opacity:1" id="stop4054" offset="1"/></linearGradient><radialGradient id="radialGradient5168" cx="603.105" cy="487.936" r="117.143" fx="603.105" fy="487.936" gradientTransform="matrix(-0.20437074,0,0,0.13411564,145.36445,46.806085)" gradientUnits="userSpaceOnUse" xlink:href="#linearGradient5060"/><linearGradient id="linearGradient5060"><stop style="stop-color:black;stop-opacity:1" id="stop5062" offset="0"/><stop style="stop-color:black;stop-opacity:0" id="stop5064" offset="1"/></linearGradient><radialGradient id="radialGradient5171" cx="602.634" cy="487.904" r="117.143" fx="602.634" fy="487.904" gradientTransform="matrix(0.18408987,0,0,0.13279625,-5.2188746,47.454052)" gradientUnits="userSpaceOnUse" xlink:href="#linearGradient5060"/><linearGradient id="linearGradient5174" x1="302.857" x2="302.857" y1="366.648" y2="609.505" gradientTransform="matrix(0.06552305,0,0,0.04901214,0.29458814,17.285689)" gradientUnits="userSpaceOnUse" xlink:href="#linearGradient5048"/><linearGradient id="linearGradient5048"><stop style="stop-color:black;stop-opacity:0" id="stop5050" offset="0"/><stop id="stop5056" offset=".5" style="stop-color:black;stop-opacity:1"/><stop style="stop-color:black;stop-opacity:0" id="stop5052" offset="1"/></linearGradient><linearGradient id="linearGradient4712" x1="302.857" x2="302.857" y1="366.648" y2="609.505" gradientTransform="matrix(0.17318051,0,0,0.12954139,1.3213794,49.03803)" gradientUnits="userSpaceOnUse" xlink:href="#linearGradient5048"/><radialGradient id="radialGradient5021" cx="80.451" cy="161.302" r="39.358" fx="80.451" fy="161.302" gradientTransform="matrix(0.23308657,0,0,0.25622489,76.517055,53.725112)" gradientUnits="userSpaceOnUse" xlink:href="#linearGradient10672"/><linearGradient id="linearGradient5023" x1="35.639" x2="35.391" y1="13.85" y2="42.832" gradientTransform="matrix(2.6430471,0,0,2.6430471,0.5427694,3.3511404)" gradientUnits="userSpaceOnUse" xlink:href="#linearGradient4040"/><linearGradient id="linearGradient5025" x1="55.906" x2="55.906" y1="89.361" y2="94" gradientTransform="matrix(0.6343313,0,0,0.58734374,-3.5803846,-0.31975159)" gradientUnits="userSpaceOnUse" xlink:href="#linearGradient7512"/><linearGradient id="linearGradient5027" x1="23.425" x2="23.425" y1="16.5" y2="12.854" gradientTransform="matrix(2.8988259,0,0,2.6430474,-5.5959256,11.280282)" gradientUnits="userSpaceOnUse" xlink:href="#linearGradient6290"/><linearGradient id="linearGradient5029" x1="101.25" x2="101.25" y1="59.007" y2="54.194" gradientTransform="matrix(0.62189365,0,0,0.64037939,-2.2557516,-1.6221116)" gradientUnits="userSpaceOnUse" xlink:href="#linearGradient7452"/><radialGradient id="radialGradient5031" cx="24" cy="31" r="8" fx="24" fy="31" gradientTransform="matrix(2.4778567,0,0,2.4778564,-21.923127,13.758145)" gradientUnits="userSpaceOnUse" xlink:href="#linearGradient2971"/><linearGradient id="linearGradient5033" x1="72.809" x2="85.31" y1="109.735" y2="191.977" gradientTransform="matrix(0.50365086,0,0,0.50365086,-2.9738286,9.3315956)" gradientUnits="userSpaceOnUse" xlink:href="#linearGradient9217"/><radialGradient id="radialGradient5039" cx="24.5" cy="29.5" r="2.5" fx="24.5" fy="29.5" gradientTransform="matrix(0.92882067,0,0,0.92882067,13.049101,62.666066)" gradientUnits="userSpaceOnUse" xlink:href="#linearGradient10477"/><linearGradient id="linearGradient5041" x1="39.336" x2="51.185" y1="-132.085" y2="41.899" gradientTransform="matrix(0.46847296,-0.17949483,0.17280765,0.48660162,7.2280004,76.013456)" gradientUnits="userSpaceOnUse" xlink:href="#linearGradient9131"/><linearGradient id="linearGradient5043" x1="45.381" x2="115.323" y1="140.916" y2="140.916" gradientTransform="matrix(0.23503706,0,0,0.26354586,76.670917,48.585977)" gradientUnits="userSpaceOnUse" xlink:href="#linearGradient9207"/><radialGradient id="radialGradient5045" cx="80.451" cy="161.302" r="44.981" fx="80.451" fy="161.302" gradientTransform="matrix(0.23503706,0,0,0.23503706,76.670917,54.589016)" gradientUnits="userSpaceOnUse" xlink:href="#linearGradient9241"/><radialGradient id="radialGradient5047" cx="80.451" cy="161.302" r="44.981" fx="80.451" fy="161.302" gradientTransform="matrix(0.23503706,0,0,0.23503706,76.670917,54.589016)" gradientUnits="userSpaceOnUse" xlink:href="#linearGradient7364"/><linearGradient id="linearGradient5049" x1="39.336" x2="51.185" y1="-132.085" y2="41.899" gradientTransform="matrix(0.16943383,-0.06279737,0.06249984,0.1702407,84.188914,86.229922)" gradientUnits="userSpaceOnUse" xlink:href="#linearGradient9131"/><linearGradient id="linearGradient5051" x1="106.302" x2="108.069" y1="29.446" y2="36.183" gradientTransform="matrix(0.65165357,0,0,0.53832235,23.947641,72.874776)" gradientUnits="userSpaceOnUse" xlink:href="#linearGradient9428"/><linearGradient id="linearGradient5053" x1="106.347" x2="112.062" y1="23.515" y2="40.552" gradientTransform="matrix(0.65165357,0,0,0.53832235,23.947641,72.874776)" gradientUnits="userSpaceOnUse" xlink:href="#linearGradient9436"/><linearGradient id="linearGradient5055" x1="97.036" x2="97.036" y1="57.995" y2="59.963" gradientTransform="matrix(0.68038191,0,0,1.0572188,39.619306,-27.572503)" gradientUnits="userSpaceOnUse" xlink:href="#linearGradient9193"/><linearGradient id="linearGradient5057" x1="44.732" x2="46.024" y1="14.25" y2="14.25" gradientTransform="matrix(2.9100718,0,0,2.8777809,-23.908837,-8.1222096)" gradientUnits="userSpaceOnUse" xlink:href="#linearGradient6521"/><linearGradient id="linearGradient5059" x1="42.75" x2="42.75" y1="57.562" y2="60.002" gradientTransform="matrix(0.82595248,0,0,1.0572188,-16.554443,-27.572503)" gradientUnits="userSpaceOnUse" xlink:href="#linearGradient9193"/><linearGradient id="linearGradient5061" x1="13.101" x2="31.101" y1="11.5" y2="11.5" gradientTransform="matrix(2.6430471,0,0,2.6430471,0.5427694,3.3511404)" gradientUnits="userSpaceOnUse" xlink:href="#linearGradient4077"/><linearGradient id="linearGradient5063" x1="39" x2="40" y1="2.5" y2="2.5" gradientTransform="matrix(2.6430471,0,0,2.6430471,3.1858164,3.3511404)" gradientUnits="userSpaceOnUse" xlink:href="#linearGradient6974"/><linearGradient id="linearGradient5065" x1="39" x2="40" y1="2.5" y2="2.5" gradientTransform="matrix(2.6430471,0,0,6.9470587,3.1858174,11.752958)" gradientUnits="userSpaceOnUse" xlink:href="#linearGradient6974"/><linearGradient id="linearGradient5104" x1="302.857" x2="302.857" y1="366.648" y2="609.505" gradientTransform="matrix(0.17318051,0,0,0.12954139,1.3213794,49.03803)" gradientUnits="userSpaceOnUse" xlink:href="#linearGradient5048"/><radialGradient id="radialGradient5106" cx="602.634" cy="487.904" r="117.143" fx="602.634" fy="487.904" gradientTransform="matrix(0.18408987,0,0,0.13279625,-5.2188746,47.454052)" gradientUnits="userSpaceOnUse" xlink:href="#linearGradient5060"/><radialGradient id="radialGradient5108" cx="603.105" cy="487.936" r="117.143" fx="603.105" fy="487.936" gradientTransform="matrix(-0.20437074,0,0,0.13411564,145.36445,46.806085)" gradientUnits="userSpaceOnUse" xlink:href="#linearGradient5060"/><linearGradient id="linearGradient5110" x1="42.994" x2="42.89" y1="13.222" y2="38.469" gradientTransform="matrix(2.9009054,0,0,2.8988259,-5.6458296,3.8200634)" gradientUnits="userSpaceOnUse" xlink:href="#linearGradient4050"/><radialGradient id="radialGradient5112" cx="80.451" cy="161.302" r="39.358" fx="80.451" fy="161.302" gradientTransform="matrix(0.23308657,0,0,0.25622489,76.517055,53.725112)" gradientUnits="userSpaceOnUse" xlink:href="#linearGradient10672"/><linearGradient id="linearGradient5115" x1="35.639" x2="35.391" y1="13.85" y2="42.832" gradientTransform="matrix(2.6430471,0,0,2.6430471,0.5427694,3.3511404)" gradientUnits="userSpaceOnUse" xlink:href="#linearGradient4040"/><linearGradient id="linearGradient5117" x1="55.906" x2="55.906" y1="89.361" y2="94" gradientTransform="matrix(0.6343313,0,0,0.58734374,-3.5803846,-0.31975159)" gradientUnits="userSpaceOnUse" xlink:href="#linearGradient7512"/><linearGradient id="linearGradient5119" x1="23.425" x2="23.425" y1="16.5" y2="12.854" gradientTransform="matrix(2.8988259,0,0,2.6430474,-5.5959256,11.280282)" gradientUnits="userSpaceOnUse" xlink:href="#linearGradient6290"/><linearGradient id="linearGradient5121" x1="101.25" x2="101.25" y1="59.007" y2="54.194" gradientTransform="matrix(0.62189365,0,0,0.64037939,-2.2557516,-1.6221116)" gradientUnits="userSpaceOnUse" xlink:href="#linearGradient7452"/><radialGradient id="radialGradient5123" cx="24" cy="31" r="8" fx="24" fy="31" gradientTransform="matrix(2.4778567,0,0,2.4778564,-21.923127,13.758145)" gradientUnits="userSpaceOnUse" xlink:href="#linearGradient2971"/><linearGradient id="linearGradient5126" x1="72.809" x2="85.31" y1="109.735" y2="191.977" gradientTransform="matrix(0.50365086,0,0,0.50365086,-2.9738286,9.3315956)" gradientUnits="userSpaceOnUse" xlink:href="#linearGradient9217"/><radialGradient id="radialGradient5129" cx="24.5" cy="29.5" r="2.5" fx="24.5" fy="29.5" gradientTransform="matrix(0.92882067,0,0,0.92882067,13.049101,62.666066)" gradientUnits="userSpaceOnUse" xlink:href="#linearGradient10477"/><linearGradient id="linearGradient5131" x1="39.336" x2="51.185" y1="-132.085" y2="41.899" gradientTransform="matrix(0.46847296,-0.17949483,0.17280765,0.48660162,7.2280004,76.013456)" gradientUnits="userSpaceOnUse" xlink:href="#linearGradient9131"/><linearGradient id="linearGradient5133" x1="45.381" x2="115.323" y1="140.916" y2="140.916" gradientTransform="matrix(0.23503706,0,0,0.26354586,76.670917,48.585977)" gradientUnits="userSpaceOnUse" xlink:href="#linearGradient9207"/><radialGradient id="radialGradient5135" cx="80.451" cy="161.302" r="44.981" fx="80.451" fy="161.302" gradientTransform="matrix(0.23503706,0,0,0.23503706,76.670917,54.589016)" gradientUnits="userSpaceOnUse" xlink:href="#linearGradient9241"/><radialGradient id="radialGradient5137" cx="80.451" cy="161.302" r="44.981" fx="80.451" fy="161.302" gradientTransform="matrix(0.23503706,0,0,0.23503706,76.670917,54.589016)" gradientUnits="userSpaceOnUse" xlink:href="#linearGradient7364"/><linearGradient id="linearGradient5139" x1="39.336" x2="51.185" y1="-132.085" y2="41.899" gradientTransform="matrix(0.16943383,-0.06279737,0.06249984,0.1702407,84.188914,86.229922)" gradientUnits="userSpaceOnUse" xlink:href="#linearGradient9131"/><linearGradient id="linearGradient5141" x1="106.302" x2="108.069" y1="29.446" y2="36.183" gradientTransform="matrix(0.65165357,0,0,0.53832235,23.947641,72.874776)" gradientUnits="userSpaceOnUse" xlink:href="#linearGradient9428"/><linearGradient id="linearGradient5143" x1="106.347" x2="112.062" y1="23.515" y2="40.552" gradientTransform="matrix(0.65165357,0,0,0.53832235,23.947641,72.874776)" gradientUnits="userSpaceOnUse" xlink:href="#linearGradient9436"/><linearGradient id="linearGradient5145" x1="97.036" x2="97.036" y1="57.995" y2="59.963" gradientTransform="matrix(0.68038191,0,0,1.0572188,39.619306,-27.572503)" gradientUnits="userSpaceOnUse" xlink:href="#linearGradient9193"/><linearGradient id="linearGradient5147" x1="44.732" x2="46.024" y1="14.25" y2="14.25" gradientTransform="matrix(2.9100718,0,0,2.8777809,-23.908837,-8.1222096)" gradientUnits="userSpaceOnUse" xlink:href="#linearGradient6521"/><linearGradient id="linearGradient5149" x1="42.75" x2="42.75" y1="57.562" y2="60.002" gradientTransform="matrix(0.82595248,0,0,1.0572188,-16.554443,-27.572503)" gradientUnits="userSpaceOnUse" xlink:href="#linearGradient9193"/><linearGradient id="linearGradient5152" x1="13.101" x2="31.101" y1="11.5" y2="11.5" gradientTransform="matrix(2.6430471,0,0,2.6430471,0.5427694,3.3511404)" gradientUnits="userSpaceOnUse" xlink:href="#linearGradient4077"/><linearGradient id="linearGradient5155" x1="39" x2="40" y1="2.5" y2="2.5" gradientTransform="matrix(2.6430471,0,0,2.6430471,3.1858164,3.3511404)" gradientUnits="userSpaceOnUse" xlink:href="#linearGradient6974"/><linearGradient id="linearGradient5158" x1="39" x2="40" y1="2.5" y2="2.5" gradientTransform="matrix(2.6430471,0,0,6.9470587,3.1858174,11.752958)" gradientUnits="userSpaceOnUse" xlink:href="#linearGradient6974"/></defs><metadata id="metadata3391"/><g id="layer1"><g id="g5067" transform="translate(0.1675424,0)"><path id="rect4173" d="m 22.103044,96.534102 c 27.873816,0 55.747631,0 83.621446,0 0,10.486678 0,20.973368 0,31.460048 -27.873815,0 -55.74763,0 -83.621446,0 0,-10.48668 0,-20.97337 0,-31.460048 z" style="opacity:.5;fill:url(#linearGradient5104);fill-opacity:1;fill-rule:nonzero;stroke:none;stroke-width:1;marker:none;visibility:visible;display:inline;overflow:visible"/><path id="path5058" d="m 105.7245,96.535192 c 0,10.486098 0,20.972198 0,31.458298 8.81235,-0.39516 18.83931,-5.0548 21.39323,-14.13356 1.32814,-11.25537 -11.87591,-17.609788 -21.39323,-17.324738 z" style="opacity:.5;fill:url(#radialGradient5106);fill-opacity:1;fill-rule:nonzero;stroke:none;stroke-width:1;marker:none;visibility:visible;display:inline;overflow:visible"/><path id="path5018" d="m 22.103045,96.535192 c 0,10.486098 0,20.972198 0,31.458298 -7.035913,-0.0172 -16.2056506,0.028 -19.9291526,-7.17532 -3.100643,-7.3071 -2.436105,-18.10168 5.551321,-21.953098 4.4725776,-2.11031 9.5209836,-2.2849 14.3778316,-2.32988 z" style="opacity:.5;fill:url(#radialGradient5108);fill-opacity:1;fill-rule:nonzero;stroke:none;stroke-width:1;marker:none;visibility:visible;display:inline;overflow:visible"/><path id="rect5474" d="m 10.807671,28.460087 c 35.776754,0.0328 71.556747,-0.06561 107.331469,0.04921 5.40071,0.797429 5.71112,7.276762 5.30532,11.576268 -0.0292,24.295371 0.0585,48.593307 -0.0439,72.887055 -0.7563,5.40885 -7.23286,5.77735 -11.53491,5.35106 -34.017258,-0.0328 -68.037762,0.0656 -102.0529966,-0.0492 -5.4007,-0.79743 -5.711118,-7.27676 -5.305314,-11.57626 0,-23.963708 0,-47.927414 0,-71.891119 -0.107149,-3.36382 2.924441,-6.450834 6.3003316,-6.347001 z" style="fill:url(#linearGradient5110);fill-opacity:1;fill-rule:evenodd;stroke:#646464;stroke-width:2.64304709;stroke-linecap:round;stroke-linejoin:round;stroke-miterlimit:4;stroke-opacity:1;stroke-dasharray:none;stroke-dashoffset:0"/><path id="path10654" d="m 104.44302,95.054802 c 0.91615,8.453638 -11.33753,14.028468 -16.314584,6.465878 -5.467729,-6.634848 0.758367,-19.236548 9.726451,-16.142868 3.983663,1.36056 6.740263,5.48658 6.588133,9.67699 z" style="fill:url(#radialGradient5112);fill-opacity:1;fill-rule:evenodd;stroke:none"/><path id="path10644" d="M 58.6898,90.571692 C 59.189005,103.8038 45.020394,114.83886 32.306045,111.12504 19.875234,108.25866 12.472678,92.876072 18.428326,81.452522 23.689474,69.716266 40.389492,65.451016 50.38283,73.753446 c 5.136785,3.94502 8.392758,10.311996 8.30697,16.818246 z" style="fill:none;stroke:#000;stroke-width:5.28609371;stroke-linecap:round;stroke-linejoin:round;stroke-miterlimit:4;stroke-opacity:1;stroke-dasharray:none;stroke-dashoffset:.6"/><path id="path6369" d="m 81.065329,96.536012 c -3.785478,-10.24493 6.411424,-22.254306 17.184363,-19.790616 8.713158,1.464166 14.797118,11.428876 11.779778,19.814656" style="opacity:.6;fill:none;stroke:#eeeeec;stroke-width:2.64304709;stroke-linecap:square;stroke-linejoin:round;stroke-miterlimit:4;stroke-opacity:1;stroke-dasharray:2.6430471,5.2860942;stroke-dashoffset:0"/><path id="rect6262" d="m 10.706789,32.171462 c 35.752212,0.05077 71.504689,-0.101599 107.256701,0.07623 5.63953,4.304101 1.62737,13.305844 2.82767,19.620377 -0.003,20.269417 0.0825,40.539133 -0.0618,60.808261 -3.1968,5.71226 -11.54331,1.96228 -17.05331,2.99586 -31.229254,-0.0206 -62.458758,0.0961 -93.6877916,-0.0678 -5.639489,-4.30409 -1.627337,-13.30583 -2.827641,-19.620358 0.0034,-20.269416 -0.08248,-40.539137 0.06177,-60.808274 0.276631,-1.639984 1.786733,-3.036279 3.4843906,-3.004299 z" style="fill:none;stroke:url(#linearGradient5115);stroke-width:2.64304709;stroke-linecap:round;stroke-linejoin:round;stroke-miterlimit:4;stroke-opacity:1;stroke-dasharray:none;stroke-dashoffset:0"/><path id="rect6266" d="m 20.336484,46.961417 c 29.357945,0.04387 58.716133,-0.08775 88.073896,0.06579 5.0283,2.248638 4.1379,11.799819 1.07374,15.443729 -8.00008,0.87596 -16.303481,0.0542 -24.415418,0.34157 -22.082027,-0.11248 -44.227894,0.30534 -66.269996,-0.24829 -3.564786,-1.94319 -4.353827,-15.798588 1.537778,-15.602799 z" style="fill:url(#linearGradient5117);fill-opacity:1;fill-rule:evenodd;stroke:#204a87;stroke-width:2.64304709;stroke-linecap:round;stroke-linejoin:round;stroke-miterlimit:4;stroke-opacity:1;stroke-dasharray:none;stroke-dashoffset:0"/><path id="rect6288" d="m 19.625116,49.604464 c 29.567187,0 59.134376,0 88.701564,0 0.64331,3.417434 2.68976,12.229062 -3.51906,10.572192 -28.394168,0 -56.788335,0 -85.182504,0 -0.983506,-3.07719 -0.917538,-7.636459 0,-10.572192 z" style="opacity:.5;fill:none;stroke:url(#linearGradient5119);stroke-width:2.64304709;stroke-linecap:round;stroke-linejoin:round;stroke-miterlimit:4;stroke-opacity:1;stroke-dasharray:none;stroke-dashoffset:0"/><path id="path6292" d="m 19.80794,58.855126 c 29.630574,0 59.261146,0 88.89172,0" style="opacity:.7;fill:#eeeeec;fill-rule:evenodd;stroke:#eeeeec;stroke-width:5.28609419;stroke-linecap:butt;stroke-linejoin:miter;stroke-miterlimit:4;stroke-opacity:1;stroke-dasharray:2.6430471,2.6430471;stroke-dashoffset:.52860942"/><path id="path6309" d="m 41.509999,49.603891 c 0,3.524445 0,7.048895 0,10.573335" style="fill:#c00;fill-rule:evenodd;stroke:#c00;stroke-width:2.64304686;stroke-linecap:square;stroke-linejoin:miter;stroke-miterlimit:4;stroke-opacity:1;stroke-dasharray:none"/><path id="rect7285" d="m 10.737123,29.756463 c 35.492517,0 70.985035,0 106.477557,0 6.91086,0.302451 6.67004,13.017096 -0.45004,12.810814 -35.329078,-0.009 -70.68688,5.1e-5 -106.027517,-0.0032 -6.7280526,-0.06608 -6.6690816,-12.773842 0,-12.807588 z" style="fill:url(#linearGradient5121);fill-opacity:1;fill-rule:evenodd;stroke:none"/><path id="path7348" d="m 5.8288634,35.464638 c 1.687033,5.458125 8.0133366,4.491203 12.4879066,4.482655 33.050555,0.03555 66.106421,-0.07112 99.15365,0.05336 3.08067,-0.585763 6.38274,-6.252789 3.42183,-0.348505 -3.48162,3.811005 -9.10986,1.670509 -13.63605,2.21629 -31.992743,0 -63.985485,0 -95.978226,0 -3.2666316,-0.0079 -5.4683546,-3.400385 -5.4491106,-6.403804 z" style="fill:#eeeeec;fill-opacity:1;fill-rule:evenodd;stroke:none"/><path id="path7356" d="m 5.8288634,35.446768 c 3.344932,4.244993 9.2765666,2.061836 13.8943566,2.597759 32.344653,0 64.689309,0 97.03396,0 2.21505,0.32408 7.71685,-4.021518 3.78076,0.348055 -4.4805,2.871134 -10.03894,1.061664 -15.04139,1.554711 -31.406191,0 -62.812383,0 -94.218576,0 C 8.8631424,39.5788 6.5258984,37.844218 5.8288634,35.446768 z" style="fill:#c8c8c8;fill-opacity:1;fill-rule:evenodd;stroke:none"/><path id="path4589" d="M 57.368281,90.571692 C 57.931848,103.4328 43.537776,113.92075 31.442506,109.48647 19.522844,105.97967 13.675446,90.202872 20.773673,79.880432 27.039629,69.706676 42.885189,67.471326 51.282097,76.277456 c 3.824933,3.694436 6.147046,8.957086 6.086184,14.294236 z" style="opacity:.58515284;fill:url(#radialGradient5123);fill-opacity:1;stroke:none"/><path id="path9110" d="M 57.368279,90.571692 C 57.936315,103.43652 43.536262,113.92175 31.440182,109.48719 19.517277,105.98154 13.677555,90.200052 20.772695,79.877282 27.039978,69.703506 42.887082,67.473246 51.28501,76.276046 c 3.824981,3.695316 6.144403,8.958046 6.083269,14.295646 z" style="fill:none;stroke:url(#linearGradient5126);stroke-width:2.64304686;stroke-linecap:round;stroke-linejoin:round;stroke-miterlimit:4;stroke-opacity:1;stroke-dasharray:none;stroke-dashoffset:.6"/><path id="path7529" d="M 56.046755,90.571592 C 56.610924,103.02083 42.248366,112.85259 30.812168,107.87591 19.955907,103.90552 15.318376,88.994872 22.458867,79.740152 c 6.429805,-9.249126 21.549292,-10.411936 28.839694,-1.54924 3.017361,3.3638 4.790306,7.85028 4.748194,12.38068 z" style="fill:url(#pattern5035);fill-opacity:1;fill-rule:evenodd;stroke:none"/><path id="path10602" d="m 37.545434,109.07301 c -12.4492,0.5642 -22.281132,-13.798238 -17.304406,-25.234448 3.97047,-10.856266 18.88115,-15.493686 28.135903,-8.353266 9.249156,6.429726 10.411996,21.549226 1.549254,28.839554 -3.363832,3.01735 -7.850336,4.79027 -12.380751,4.74816 z" style="fill:url(#pattern5037);fill-opacity:1;fill-rule:evenodd;stroke:none"/><path id="path4593" d="m 43.766521,92.388322 c 0.672867,8.877488 -15.048577,5.28086 -10.762614,-2.40886 2.172481,-5.4214 11.120002,-3.3724 10.762614,2.40886 z" style="opacity:.58515284;fill:#000;fill-opacity:1;fill-rule:evenodd;stroke:#2e3436;stroke-width:1.88789141px;stroke-linecap:butt;stroke-linejoin:miter;stroke-miterlimit:4;stroke-opacity:1;stroke-dashoffset:0;marker:none;visibility:visible;display:inline;overflow:visible;enable-background:accumulate"/><path id="path4595" d="m 38.127253,90.066272 c -2.560917,7.29061 -7.267904,-5.98162 -0.387931,-1.28281 l 0.290606,0.61149 0.09732,0.67132 z" style="opacity:.58515284;fill:url(#radialGradient5129);fill-opacity:1;fill-rule:evenodd;stroke:none;stroke-width:1.69610727px;marker:none;visibility:visible;display:inline;overflow:visible;enable-background:accumulate"/><path id="path9129" d="m 53.255563,82.053462 c 3.237481,10.07153 -6.13423,19.769648 -15.686657,21.216488 -7.821585,1.74612 -17.887983,-2.96313 -18.206635,-11.784268 -0.537704,-14.791486 20.387276,-24.111136 31.083244,-13.894986 1.254073,1.253346 2.221542,2.790116 2.810048,4.462766 z" style="fill:url(#linearGradient5131);fill-opacity:1;fill-rule:evenodd;stroke:none"/><path id="path9348" d="m 104.83057,91.096552 c 0.86098,7.79709 -9.821463,14.136618 -15.473429,7.74988 -6.258188,-5.82539 -2.150385,-19.15595 7.131935,-18.09418 4.913394,0.63094 8.544274,5.5011 8.341494,10.3443 z" style="fill:url(#linearGradient5133);fill-opacity:1;fill-rule:evenodd;stroke:#2e3436;stroke-width:2.64304781;stroke-linecap:round;stroke-linejoin:round;stroke-miterlimit:4;stroke-opacity:1;stroke-dasharray:none;stroke-dashoffset:.6"/><path id="path9350" d="m 104.83057,92.501062 c 0.62274,9.353998 -14.018384,12.860728 -17.627467,4.08601 -3.90433,-7.49063 5.05257,-16.67129 12.506767,-12.35035 3.04062,1.54105 5.23698,4.80222 5.1207,8.26434 z" style="fill:url(#radialGradient5135);fill-opacity:1;fill-rule:evenodd;stroke:url(#radialGradient5137);stroke-width:2.64304733;stroke-linecap:round;stroke-linejoin:round;stroke-miterlimit:4;stroke-opacity:1;stroke-dasharray:none;stroke-dashoffset:.6"/><path id="path9358" d="m 100.83582,88.343062 c 2.98401,8.89092 -15.732785,10.05828 -11.602693,0.55662 2.19934,-3.99175 9.483665,-5.36732 11.602693,-0.55662 z" style="fill:url(#linearGradient5139);fill-opacity:1;fill-rule:evenodd;stroke:none"/><path id="path9418" d="m 97.674747,89.250172 c -0.996796,8.19596 -11.782966,-2.45842 -3.303806,-3.30381 1.755493,-0.0441 3.350622,1.5331 3.303806,3.30381 z" style="fill:url(#linearGradient5141);fill-opacity:1;fill-rule:evenodd;stroke:url(#linearGradient5143);stroke-width:1.3215239;stroke-linecap:round;stroke-linejoin:round;stroke-miterlimit:4;stroke-opacity:1;stroke-dasharray:none;stroke-dashoffset:.6"/><path id="rect9332" d="m 94.429529,31.103135 c 6.673451,1.301795 16.326081,-2.783706 21.051031,2.407726 -3.23178,5.805772 -11.66835,1.628191 -17.1951,2.897805 -4.191925,1.572148 -10.496602,-3.286571 -3.855931,-5.305531 z" style="fill:url(#linearGradient5145);fill-opacity:1;fill-rule:evenodd;stroke:#2e3436;stroke-width:2.64304733;stroke-linecap:round;stroke-linejoin:round;stroke-miterlimit:4;stroke-opacity:.25098039;stroke-dasharray:none;stroke-dashoffset:.6"/><path id="rect6516" d="m 104.94313,34.175806 c 0,-3.68317 0,-7.366339 0,-11.049508 4.44731,0.937241 2.11336,-5.105636 2.64305,-7.742923 1.27015,-3.936219 -4.4345,-1.941487 -2.64305,-6.6517894 1.19599,-2.7008092 8.02622,-1.4966762 10.57219,-0.712198 0.42869,2.8115094 0.12681,4.9268574 -2.64405,5.3256684 0.23616,4.289736 -1.2568,9.556868 2.75954,11.224405 -0.28347,5.098069 1.63186,13.716093 -6.69689,11.803793 -1.5399,-0.111143 -3.28005,-0.689988 -3.99079,-2.197448 z" style="fill:url(#linearGradient5147);fill-opacity:1;fill-rule:evenodd;stroke:#000;stroke-width:2.64304709;stroke-linecap:butt;stroke-linejoin:round;stroke-miterlimit:4;stroke-opacity:.25098039;stroke-dasharray:none;stroke-dashoffset:1.5"/><path id="rect7472" d="m 14.156559,31.103135 c 3.656026,-1.355745 14.717518,1.179784 7.551027,5.063586 -3.394315,1.711069 -14.5475276,-0.397683 -8.625033,-4.736948 l 1.074006,-0.326638 z" style="fill:url(#linearGradient5149);fill-opacity:1;fill-rule:evenodd;stroke:#2e3436;stroke-width:2.64304709;stroke-linecap:round;stroke-linejoin:round;stroke-miterlimit:4;stroke-opacity:.25098039;stroke-dasharray:none;stroke-dashoffset:.6"/><path id="rect9169" d="m 39.254415,31.103135 c 13.135494,0 26.270989,0 39.406484,0 6.505363,2.347628 -1.623981,7.28276 -5.278474,5.286094 -11.376003,0 -22.752008,0 -34.12801,0 -3.55294,0.282206 -3.549243,-5.562655 0,-5.286094 z" style="fill:url(#linearGradient5152);fill-opacity:1;fill-rule:evenodd;stroke:#2e3436;stroke-width:2.64304733;stroke-linecap:round;stroke-linejoin:round;stroke-miterlimit:4;stroke-opacity:.25098039;stroke-dasharray:none;stroke-dashoffset:.6"/><path id="path6972" d="m 107.58618,8.6361346 c 0,0.881383 0,1.7627644 0,2.6441474" style="fill:none;stroke:url(#linearGradient5155);stroke-width:2.64304686px;stroke-linecap:butt;stroke-linejoin:miter;stroke-opacity:1"/><path id="path6982" d="m 107.58618,25.81704 c 0,2.508712 0,5.017423 0,7.526135" style="fill:none;stroke:url(#linearGradient5158);stroke-width:2.64304709;stroke-linecap:round;stroke-linejoin:miter;stroke-miterlimit:4;stroke-opacity:1;stroke-dasharray:none"/><path id="path6986" d="m 62.654376,31.102241 c 0,1.762328 0,3.524659 0,5.286988" style="fill:none;stroke:#2e3436;stroke-width:2.64304686px;stroke-linecap:butt;stroke-linejoin:miter;stroke-opacity:.25098039"/><path id="path6988" d="m 17.722575,31.102241 c 0,1.762328 0,3.524659 0,5.286988" style="fill:none;stroke:#2e3436;stroke-width:2.64304686px;stroke-linecap:butt;stroke-linejoin:miter;stroke-opacity:.25098039"/></g></g></svg>